<svg xmlns="http://www.w3.org/2000/svg" width="60" height="60" viewBox="0 0 60 60">
    <g fill="none" fill-rule="evenodd">
        <circle cx="30" cy="30" r="30" fill="#FFF"/>
        <path fill="#323232" fill-rule="nonzero" d="M46.46 38.597H48v-.72h-1.54c-.705 0-1.406.086-2.089.259l-2.736.677a7.82 7.82 0 0 1-4.399-.173l-.986-.331a8.518 8.518 0 0 0-2.722-.44h-5.35v-.223a1.98 1.98 0 0 1 1.98-1.98h6.48a1.54 1.54 0 0 0 .18-3.067h-.252l.598-2.16h.526a1.98 1.98 0 0 1 1.101.331l4.104 2.736c.447.301.974.461 1.512.461h3.6v-.72H44.4a1.93 1.93 0 0 1-1.102-.338l-1.778-1.253V12H19.64v3.528H12V48h21.895v-3.528h7.625v-4.896l.166-.043h.079l2.736-.677a7.697 7.697 0 0 1 1.958-.26zm-14.725-3.672H29.87l1.037-1.037c.252-.248.565-.424.907-.511l.368-.094-.447 1.642zm.475-2.34c-.685.02-1.336.3-1.821.785l-3.06 3.06a.88.88 0 1 1-1.246-1.246l4.241-4.234c.37-.373.872-.583 1.397-.583h1.245l-.59 2.21-.166.008zm4.414.72a.814.814 0 1 1 0 1.62h-.72l.44-1.62h.28zm-1.44 1.62h-2.686l2.621-9.691 2.434.813-2.369 8.878zm3.031-11.21l-.439 1.62-2.47-.807.454-1.627 2.455.813zm-2.246-1.527l.72-2.693c.142-.52.613-.882 1.152-.885h.187a1.188 1.188 0 0 1 1.188 1.195c.002.104-.01.208-.036.31l-.785 2.88-2.426-.807zM33.16 47.28H12.72V16.262h7.654V12.72H40.8v18.432l-1.613-1.08a2.758 2.758 0 0 0-1.512-.454h-.331l2.52-9.36a1.908 1.908 0 0 0-1.858-2.426h-.187a1.93 1.93 0 0 0-1.857 1.44l-2.067 7.675V15.528H21.994v.72H33.16v13.385h-1.44c-.583 0-1.15.193-1.613.547l-.058.043h-5.71v.72h4.94l-1.613 1.613h-3.326v.72h2.585l-1.361 1.36c-.304.301-.475.71-.475 1.138 0 .895.725 1.62 1.62 1.62a1.67 1.67 0 0 0 .46-.079l.288-.086v.302a.958.958 0 0 0 .958 1.022h2.304l-.302 1.102c-.225.843.148 1.73.907 2.16l.144.087-.173.684.72.18.173-.684h.288a1.7 1.7 0 0 0 .396-.05l.266-.058.022 5.306zm.482-6.76c-.139.518-.607.88-1.145.885h-.194a1.188 1.188 0 0 1-1.145-1.505l.346-1.289h2.65l-.512 1.908zm7.157 3.218h-6.905V41.52l.05-.065c.187-.208.327-.453.411-.72l.533-1.98.201.043c.313.059.62.138.922.238l.994.331a8.72 8.72 0 0 0 2.721.44c.277-.003.553-.02.828-.051h.245v3.982z"/>
        <path fill="#0045CF" d="M14.354 17.875v5.436h14.84v-5.436h-14.84zm3.082 3.089h-.72v-.72h.72v.72zm2.354 0h-.72v-.72h.72v.72zm2.348 0h-.72v-.72h.72v.72zm2.354 0h-.72v-.72h.72v.72zm2.347 0h-.72v-.72h.72v.72zM14.354 33.895h6.61v-5.421l-3.895 3.895-1.282-1.282.526-.518.756.763 3.895-3.895v-.159h-6.61zM14.354 43.889h6.61v-5.422l-3.895 3.895-1.282-1.281.526-.519.756.764 3.895-3.896v-.158h-6.61z"/>
        <path fill="#323232" fill-rule="nonzero" d="M30.806 44.328h1v1h-1zM23.167 44.328h6.026v1h-6.026zM24.341 27.869h7.2v1h-7.2z"/>
    </g>
</svg>
