<svg xmlns="http://www.w3.org/2000/svg" width="60" height="60" viewBox="0 0 60 60">
    <g fill="none" fill-rule="evenodd">
        <circle cx="30" cy="30" r="30" fill="#FFF"/>
        <path fill="#323232" fill-rule="nonzero" d="M47.645 20.813c0 .135.045 1.597 0 1.732v17.1h-35.79V22.62a2.07 2.07 0 0 1 2.07-2.062h16.402v-.855H13.925A2.925 2.925 0 0 0 11 22.62v18.75a2.932 2.932 0 0 0 2.925 2.88h8.325v2.888h-2.52V48h20.04v-.855h-2.52V44.25h8.325a2.932 2.932 0 0 0 2.925-2.925V21.893a1.223 1.223 0 0 0-.855-1.08zm-11.25 26.332H23.082V44.25h13.335l-.022 2.895zm11.25-5.813a2.077 2.077 0 0 1-2.07 2.07h-31.65a2.077 2.077 0 0 1-2.07-2.07V40.5h35.79v.832z"/>
        <path fill="#0045CF" d="M14.75 25.117v.623a1.455 1.455 0 0 1-1.245 1.433v.885a1.44 1.44 0 0 1 1.245 1.425v.622a1.673 1.673 0 0 0 1.672 1.68h.428v-.863h-.435a.817.817 0 0 1-.817-.817v-.622a2.303 2.303 0 0 0-.75-1.726l-.166-.142.166-.15c.484-.442.756-1.07.75-1.725v-.622a.818.818 0 0 1 .817-.818h.435v-.855h-.435a1.672 1.672 0 0 0-1.665 1.673zM32.938 30.705v-.63a1.672 1.672 0 0 0-1.688-1.672h-.427v.847h.427a.818.818 0 0 1 .825.817v.63a2.25 2.25 0 0 0 .75 1.726l.165.142-.165.15a2.25 2.25 0 0 0-.75 1.725v.622a.818.818 0 0 1-.825.826h-.427v.862h.427a1.673 1.673 0 0 0 1.68-1.672v-.623A1.44 1.44 0 0 1 34.183 33v-.87a1.44 1.44 0 0 1-1.245-1.425zM18.875 23.445h10.26v1h-10.26zM21.365 25.935h7.77v1h-7.77zM18.875 25.935h1v1h-1zM18.875 28.433h10.26v1h-10.26zM18.875 30.922h10.26v1h-10.26zM28.28 33.42h1v1h-1zM18.875 33.42h7.77v1h-7.77zM18.875 35.918h10.26v1h-10.26zM45.178 22.627v-.09l1.605-.427v-3.562l-1.605-.428v-.09a5.047 5.047 0 0 0-.158-.375v-.09l.795-1.44-2.52-2.52-1.44.84-.105-.045a3.458 3.458 0 0 0-.367-.15H41.3l-.428-1.605H37.31l-.428 1.605h-.09a3.75 3.75 0 0 0-.367.15l-.09.045-1.44-.84-2.52 2.52.832 1.44-.045.09a13.01 13.01 0 0 0-.15.375l-.037.09-1.605.427v3.563l1.605.428.037.09.15.375.045.09-.832 1.44 2.52 2.52 1.44-.803.09.045c.119.058.242.108.367.15l.09.037.428 1.606h3.562l.428-1.606.097-.037c.113-.045.24-.09.368-.15l.09-.045 1.44.832 2.52-2.512-.833-1.447v-.083c.098-.165.15-.292.195-.412zm-2.085.398l-.443.645-.652-.488.495.653-.645.45a4.823 4.823 0 1 1 2.062-3.96c0 .961-.284 1.9-.817 2.7z"/>
        <path fill="#323232" fill-rule="nonzero" d="M39.095 16.567a3.75 3.75 0 1 0 2.153 6.848l-.465-.6a2.955 2.955 0 0 1-1.68.51 3 3 0 1 1 2.512-1.365l.607.457a3.75 3.75 0 0 0-.46-4.76 3.75 3.75 0 0 0-2.667-1.09z"/>
    </g>
</svg>
