<svg xmlns="http://www.w3.org/2000/svg" width="60" height="60" viewBox="0 0 60 60">
    <g fill="none" fill-rule="evenodd">
        <circle cx="30" cy="30" r="30" fill="#FFF"/>
        <path fill="#323232" fill-rule="nonzero" d="M40.357 31.78l-3.27-2.62v-.109a1.718 1.718 0 0 0 0-.282 1.749 1.749 0 0 0-1.162-1.64l-.101-.047v-1.506l.078-.062a8.243 8.243 0 1 0-10.15 0l.08.062v1.506l-.134.047a1.749 1.749 0 0 0-1.16 1.64 1.725 1.725 0 0 0 0 .282v.11l-3.271 2.62-.785 6.11 5.977-2.244.055.22c0 .102.055.196.086.29a10.682 10.682 0 0 0 3.835 5.286l.267.196.267-.196a10.682 10.682 0 0 0 3.835-5.286c0-.094.063-.188.086-.29l.055-.22h.04l5.984 2.243-.612-6.11zM23.494 19.027a7.349 7.349 0 1 1 11.631 5.961l-.18.134v1.898h-1.702v-6.895h.847a1.749 1.749 0 1 0-1.741-1.749v.855h-3.004v-.855a1.749 1.749 0 1 0-1.749 1.75h.855v6.894h-1.702v-1.898l-.188-.134a7.373 7.373 0 0 1-3.067-5.96zm9.75.204v-.855a.855.855 0 1 1 .846.855h-.847zm-.895.894v6.895h-3.004v-6.895h3.004zm-3.922-1.749v.855h-.83a.855.855 0 1 1 .854-.855h-.024zm-2.125 9.538h9.09a.855.855 0 1 1 0 1.71h-9.09a.855.855 0 1 1 0-1.71zm-.675 4.886c-.291.316-.454.73-.454 1.16-.004.314.083.622.25.887l.118.212-3.921 1.474.54-4.282 2.856-2.282.125.11c.066.06.137.115.212.164l.157.102-.094.165a1.788 1.788 0 0 0-.228.855c-.003.43.154.846.44 1.168l.117.134-.118.133zm8.432 3.137a9.725 9.725 0 0 1-3.137 4.47l-.126.103-.125-.102a9.804 9.804 0 0 1-3.138-4.47l-.086-.267h6.73l-.118.266zm.65-1.16h-7.764a.855.855 0 0 1 0-1.702h7.796a.855.855 0 1 1 0 1.701h-.031zm0-2.597h-7.764a.855.855 0 0 1 0-1.702h7.796a.855.855 0 1 1 0 1.702h-.031zm1.405 2.918l.125-.212c.164-.266.25-.573.251-.886a1.757 1.757 0 0 0-.455-1.16l-.125-.134.125-.133a1.78 1.78 0 0 0 .455-1.17 1.718 1.718 0 0 0-.235-.854l-.094-.165.157-.102c.074-.049.145-.104.211-.164l.134-.11 2.855 2.282.533 4.283-3.937-1.475z"/>
        <path fill="#323232" d="M38.192 40.659h1v6.737h-1zM38.192 49.106h1v1h-1zM40.788 40.008h1v5.443h-1zM40.788 47.153h1v1.545h-1zM22.6 40.659h1v8.039h-1zM20.004 40.008h1v6.094h-1zM17.416 39.365h1v6.094h-1zM20.004 47.804h1v1h-1z"/>
        <path fill="#0045CF" d="M30.843 50a10.918 10.918 0 0 1-4.533-12.682 11.64 11.64 0 0 0 3.804 4.823l.73.541.729-.54a11.616 11.616 0 0 0 3.811-4.832A10.925 10.925 0 0 1 30.844 50z"/>
        <path fill="#0045CF" d="M33.047 36.494a9.082 9.082 0 0 1-2.204 3.028 9.082 9.082 0 0 1-2.204-3.028h4.408z"/>
    </g>
</svg>
