<svg xmlns="http://www.w3.org/2000/svg" width="60" height="60" viewBox="0 0 60 60">
    <g fill="none" fill-rule="evenodd">
        <circle cx="30" cy="30" r="30" fill="#FFF"/>
        <path fill="#0045CF" d="M44.986 19.99c0-.585-.642-.776-1.638-1.009a5.718 5.718 0 0 1-.896-.254l-.141-.063v-.156c.056-.318.134-.631.233-.939.289-.953.437-1.595-.05-1.877-.487-.283-.953.162-1.616.868l-.17-.141.156.148a5.294 5.294 0 0 1-.706.706H40.1l-.063.035-.113-.07a5.562 5.562 0 0 1-.741-.706c-.671-.706-1.144-1.158-1.624-.876-.48.283-.339.925-.056 1.878.104.309.185.625.24.946v.155l-.149.057c-.288.12-.585.217-.89.29-.994.232-1.644.423-1.644 1.009 0 .585.65.783 1.638 1.009.307.063.609.148.903.254l.142.064v.155a5.922 5.922 0 0 1-.24.939c-.283.953-.431 1.602.056 1.884.487.283.953-.169 1.624-.875.222-.26.47-.496.74-.706l.114-.07.12.07c.258.21.495.447.706.706.451.473.91.96 1.334.96a.593.593 0 0 0 .296-.085c.487-.282.339-.931.05-1.884a6.65 6.65 0 0 1-.191-.94v-.154l.141-.064a6.17 6.17 0 0 1 .897-.247c.945-.233 1.595-.43 1.595-1.016zM17.76 24.233h3.028v5.202H17.76zM22.369 25.828h3.028v3.6h-3.028zM26.979 21.925h3.028v7.504h-3.028z"/>
        <path fill="#323232" d="M46.772 35.527l.127-.148c.253-.273.394-.63.395-1.003 0-.835-.675-1.513-1.51-1.517h-3.7v-.233-.092a.77.77 0 0 0 0-.127V28.61a2.661 2.661 0 0 0-2.66-2.66h-.36v3.324a4.15 4.15 0 0 1-3.008 4.002l-.275.078v-10.85h-.706v10.935h-2.76v-1.15h-6.487v9.938h6.487v-1.15h2.732v5.413a.79.79 0 0 1-.79.805H13.51a.79.79 0 0 1-.805-.805V17.647a.79.79 0 0 1 .805-.762h5.407v1.58h-4.61v27.227h19.158v-1.793h-.706v1.073H15.028V19.186h3.932l.05.148a1.51 1.51 0 0 0 1.411 1.01h6.91a1.532 1.532 0 0 0 1.413-1.01l.049-.148h3.932v11.527h.706V18.466h-4.575v-1.581h5.4a.79.79 0 0 1 .763.571h.706a1.51 1.51 0 0 0-1.469-1.291h-5.442l-.05-.149a1.525 1.525 0 0 0-1.411-1.002h-.819l-.035-.19a2.668 2.668 0 0 0-5.224 0L21.24 15h-.812a1.51 1.51 0 0 0-1.412 1.002l-.049.149h-5.456A1.51 1.51 0 0 0 12 17.647V46.49c0 .835.676 1.511 1.51 1.511h20.746a1.51 1.51 0 0 0 1.511-1.51v-5.196l2.21 1.108c.53.264 1.115.401 1.708.403h6.099a1.518 1.518 0 0 0 1.51-1.518 1.482 1.482 0 0 0-.395-1.002l-.127-.149.127-.14a1.49 1.49 0 0 0 0-2.02l-.127-.148.127-.14a1.49 1.49 0 0 0 0-2.02l-.127-.14zm-15.177 5.979h-1.588v-5.753h-.706v5.753h-2.753v-8.47h2.74V34.2h.705v-1.193h1.588l.014 8.499zM19.638 16.525a.79.79 0 0 1 .79-.79h1.51v-.36a1.948 1.948 0 1 1 3.89 0v.36h1.51c.439 0 .795.352.798.79v2.3a.805.805 0 0 1-.797.799h-6.91a.798.798 0 0 1-.791-.798v-2.301zm21.748 15.89c0 1.088-.57 2.098-1.504 2.66l-1.016.607.374.622.995-.615c.2-.12.387-.263.558-.423l.176-.155.142.183.07.085.134.148-.134.141a1.504 1.504 0 0 0 0 2.02l.134.147-.134.141a1.504 1.504 0 0 0 0 2.02l.134.14-.134.149a1.475 1.475 0 0 0-.24 1.51l.099.29h-1.355a3.028 3.028 0 0 1-1.412-.332l-2.824-1.412h-3.176v-6.183h2.605a4.885 4.885 0 0 0 4.884-4.885v-2.598l.29.106a1.948 1.948 0 0 1 1.292 1.828l.042 3.805zm4.398 9.67h-3.431a.798.798 0 0 1 0-1.589h3.459a.798.798 0 0 1 0 1.589h-.028zm0-2.309h-3.431a.79.79 0 1 1 0-1.58h3.459a.79.79 0 0 1 0 1.58h-.028zm0-2.308h-3.431a.79.79 0 1 1 0-1.58h3.459a.79.79 0 0 1 0 1.58h-.028zm0-2.3h-3.431a.798.798 0 0 1-.777-.707V34.32c.104-.176.194-.36.269-.55v-.071l.063-.035a.706.706 0 0 1 .388-.113h3.46a.798.798 0 0 1 0 1.588l.028.028z"/>
        <path fill="#323232" d="M16.609 42.671h1v1h-1zM18.918 42.671h5.329v1h-5.329zM16.609 40.362h1v1h-1zM18.918 40.362h5.329v1h-5.329zM16.609 38.061h1v1h-1zM18.918 38.061h5.329v1h-5.329zM16.609 35.753h1v1h-1zM18.918 35.753h5.329v1h-5.329zM16.609 33.452h1v1h-1zM18.918 33.452h5.329v1h-5.329zM16.609 29.993h14.548v1H16.609zM21.219 17.315h1v1h-1zM25.828 17.315h1v1h-1z"/>
    </g>
</svg>
