<svg xmlns="http://www.w3.org/2000/svg" width="60" height="60" viewBox="0 0 60 60">
    <g fill="none" fill-rule="evenodd">
        <circle cx="30" cy="30" r="30" fill="#FFF"/>
        <path fill="#323232" fill-rule="nonzero" d="M43.52 23.7l-2.697-1.436 3.659-3.658a1.593 1.593 0 1 0-2.253-2.253l-2.503 2.497v-4.498H14.617v32.282h25.109v-2.03h-.718v1.32H15.334V15.076h23.674v4.498l-1.119 1.12-2.116-1.127a1.758 1.758 0 0 0-2.583 1.55v.057c0 .667.378 1.276.976 1.571l1.14.581-.408.194a.925.925 0 0 0-.51.624v.057l-2.453 2.447-.137-.259a7.891 7.891 0 0 0-6.944-4.125H24.295a6.743 6.743 0 0 0 0 13.437h.2v2.332h.36a7.891 7.891 0 0 0 7.89-7.662v-.086l1.607-1.607v3.142a2.69 2.69 0 0 0 .36 1.349l1.706 2.977c.167.301.256.639.259.983v1.729h.717v-1.68c0-.47-.123-.933-.359-1.34l-1.7-2.985a1.973 1.973 0 0 1-.265-.976v-7.726h.222c1.082 0 1.959.877 1.959 1.959v3.536a2.052 2.052 0 0 0 3.996.653l.451-1.363c.223-.68.337-1.393.338-2.109a1.514 1.514 0 0 0-.833-1.349l-2.388-1.198 1.434-1.435 2.87 1.543a1.973 1.973 0 0 1 1.047 1.743v5.933a2.088 2.088 0 0 1-.158.782l-1.312 3.128a2.647 2.647 0 0 0-.223 1.069v1.865h.718v-1.865c.002-.278.063-.552.179-.804l1.363-3.178c.142-.338.215-.702.215-1.069v-5.911a2.712 2.712 0 0 0-.287-1.205 2.662 2.662 0 0 0-1.14-1.177zM24.489 35.026h-.244a6.026 6.026 0 0 1 0-11.988h.244v11.988zm.718-12.03h.236a7.21 7.21 0 0 1 5.869 4.038l.064.136-1.592 1.657-.28.955h-4.305l.008-6.787zm6.729 8.421a7.174 7.174 0 0 1-6.457 5.912h-.236v-6.816h4.103l-.323 1.299 2.985-.718-.072.323zm2.432-3.716l-2.726 2.726-1.636.41.409-1.644 3.953-3.952v2.46zm.136-5.595a1.026 1.026 0 0 1-.581-.933v-.072c0-.568.458-1.029 1.026-1.033.17 0 .337.042.488.122l1.908 1.019-1.535 1.557-1.306-.66zm6.392 4.01a.782.782 0 0 1 .438.717c0 .639-.101 1.273-.302 1.88l-.488 1.356a1.327 1.327 0 0 1-2.582-.424V26.11a2.697 2.697 0 0 0-.115-.718l-.036-.122.438-.437 2.647 1.284zm-3.393-1.55l-.15-.18a2.733 2.733 0 0 0-.97-.717l-.294-.129 6.65-6.671a.897.897 0 0 1 .618-.252c.48 0 .868.39.868.869a.897.897 0 0 1-.251.616l-6.471 6.464z"/>
        <path fill="#323232" fill-rule="nonzero" d="M26.805 32.717h1v1h-1zM29.13 32.717h1v1h-1zM20.421 27.487h2.468v1h-2.468zM20.421 29.811h2.468v1h-2.468zM29.488 38.657l-2.998 3.006.51.516 2.488-2.496 1.163 1.162 2.54-2.54v1.227h.731v-2.468h-2.468v.732h1.227l-2.03 2.023z"/>
        <path fill="#0045CF" d="M16.941 17.042h1v1h-1zM35.45 39.625h8.917v4.268H35.45zM24.632 40.55h-.725v2.906h-1.6v-4.068h-.724v4.068h-1.6v-5.23h-.725v5.23h-1.592v-6.392h-.725v7.117h8.853v-.725h-1.162zM19.258 17.042h7.69v1h-7.69zM16.941 19.359h1v1h-1zM19.258 19.359h7.69v1h-7.69z"/>
        <path fill="#323232" fill-rule="nonzero" d="M32.035 17.042h1v1h-1zM34.352 17.042h1v1h-1zM36.677 17.042h1v1h-1z"/>
    </g>
</svg>
