<svg xmlns="http://www.w3.org/2000/svg" width="60" height="60" viewBox="0 0 60 60">
    <g fill="none" fill-rule="evenodd">
        <circle cx="30" cy="30" r="30" fill="#FFF"/>
        <path fill="#323232" fill-rule="nonzero" d="M23.075 16.72a8.415 8.415 0 1 0 8.408 8.414 8.422 8.422 0 0 0-8.408-8.415zm0 16.163a7.755 7.755 0 1 1 7.755-7.749 7.762 7.762 0 0 1-7.755 7.749zM23.616 44.505a.541.541 0 1 1-1.082.013.541.541 0 0 1 1.082-.013zM46.644 15.749V14H22.197v1.749h.673v-1.076h23.1v1.076z"/>
        <path fill="#323232" fill-rule="nonzero" d="M45.97 21.762v22.44H25.563v-8.653h-1.076v-2.152h-.66v2.152h-1.491v-2.152h-.66v2.152H20.6v8.956a2.495 2.495 0 0 0 4.937.502l.033-.165h21.12v-22.44l-.72-.64zM24.89 44.505a1.822 1.822 0 1 1-3.637 0v-8.283h3.637v8.283zM43.106 20.25l.93-.752-.488-.489-7.365 5.769h-4.04v.66h.588v6.884h-1.05v.66h11.98v-.66h-.555V20.25zm-7.141 12.072h-2.561V25.45h2.56v6.87zm3.234 0h-2.561v-7.043l2.56-1.98v9.023zm3.234 0h-2.561v-9.557l2.56-1.98v11.537zM32.018 16.818h6.343v1h-6.343zM32.018 18.858h7.022v1h-7.022z"/>
        <path fill="#0045CF" d="M36.037 35.905H43.7v6.336h-7.663zM30.17 25.134a7.095 7.095 0 1 0-7.095 7.089 7.102 7.102 0 0 0 7.095-7.089zm-7.095 5.406a5.412 5.412 0 1 1 5.405-5.406 5.419 5.419 0 0 1-5.405 5.406z"/>
        <path fill="#0045CF" d="M23.075 22.738a2.396 2.396 0 1 0 2.396 2.396 2.402 2.402 0 0 0-2.396-2.396zM27.853 41.568h6.422v1h-6.422zM27.853 39.615h6.422v1h-6.422zM27.853 37.641h6.422v1h-6.422zM27.853 35.674h6.422v1h-6.422z"/>
        <path fill="#323232" fill-rule="nonzero" d="M27.82 25.134c0 .194-.013.389-.04.581h-1.544c.035-.192.052-.386.053-.58a2.686 2.686 0 0 0-.046-.522h1.544c.025.172.036.347.033.521z"/>
        <path fill="#0045CF" d="M46.644 21.174v-4.673H41.97z"/>
    </g>
</svg>
