<svg xmlns="http://www.w3.org/2000/svg" width="60" height="60" viewBox="0 0 60 60">
    <g fill="none" fill-rule="evenodd">
        <circle cx="30" cy="30" r="30" fill="#FFF"/>
        <path fill="#0045CF" d="M20.64 40.382a14.335 14.335 0 0 0 9.857 4.09v-5.436a9.029 9.029 0 0 1-6.012-2.491l-3.845 3.837zM40.8 19.61a14.32 14.32 0 0 0-9.864-4.075v5.429a8.993 8.993 0 0 1 6.02 2.498L40.8 19.61zm-6.869-1.13c-.23-.065-.475-.122-.72-.173l.137-.72c.266.05.526.115.785.187l-.202.706zm1.829-.151c.786.342 1.536.762 2.24 1.253l-.44.597a12.031 12.031 0 0 0-2.08-1.166l.28-.684zM37.2 45.12H48V48H37.2zM13.44 12h10.8v2.88h-10.8z"/>
        <path fill="#323232" fill-rule="nonzero" d="M48.173 40.44a2.722 2.722 0 0 0 .547-1.634v-8.684a1.577 1.577 0 0 0-1.152-1.562 1.476 1.476 0 0 0-.9.05l-.295.108v-2.116a1.584 1.584 0 0 0-1.253-1.584h-.202l-.043-.123a15.048 15.048 0 0 0-14.155-9.957 15.12 15.12 0 0 0-6.948 1.699l-.324.165v-.993h-.72v1.44c0 .627.215 1.235.612 1.72l1.289 1.577c.288.357.446.802.446 1.26v6.48h-.209a1.908 1.908 0 0 1-1.44-.554 1.937 1.937 0 0 1-.583-1.39v-2.714h-.72v9.835a.842.842 0 0 1-.67.857.8.8 0 0 1-.943-.792v-8.136h-.72v8.136a.8.8 0 0 1-.288.612.792.792 0 0 1-.662.18.85.85 0 0 1-.67-.857v-8.071h-.72v8.071a.806.806 0 0 1-.288.62.82.82 0 0 1-.655.18.857.857 0 0 1-.67-.865v-8.006h-.72v4.486a.9.9 0 0 1-.352.72.763.763 0 0 1-.663.144.857.857 0 0 1-.662-.864v-8.684c.002-.43.14-.848.396-1.195l.835-1.094a2.722 2.722 0 0 0 .547-1.635v-1.44h-.72v1.44a2.03 2.03 0 0 1-.41 1.21l-.82 1.08a2.722 2.722 0 0 0-.548 1.634v8.684a1.577 1.577 0 0 0 1.152 1.562c.298.077.613.06.9-.05l.295-.108v2.124a1.584 1.584 0 0 0 1.253 1.576h.202l.043.123a15.048 15.048 0 0 0 14.155 9.957 15.12 15.12 0 0 0 6.948-1.699l.324-.173v1.001h.72v-1.44c0-.627-.215-1.235-.612-1.72l-1.289-1.577a2.009 2.009 0 0 1-.446-1.26v-6.48h.209a1.894 1.894 0 0 1 1.44.554c.374.365.584.867.583 1.39v2.721h.72v-9.842a.842.842 0 0 1 .67-.857.8.8 0 0 1 .943.792v8.136h.72v-8.136a.8.8 0 0 1 .288-.612.792.792 0 0 1 .662-.18.85.85 0 0 1 .67.857v8.071h.72v-8.071c0-.24.105-.466.288-.62a.828.828 0 0 1 .662-.18.864.864 0 0 1 .662.865v8.006h.72v-4.486a.9.9 0 0 1 .353-.72.77.77 0 0 1 .67-.144c.396.096.67.457.655.864v8.684A2.03 2.03 0 0 1 47.604 40l-.82 1.094a2.722 2.722 0 0 0-.548 1.635v1.44h.72v-1.44a2.03 2.03 0 0 1 .396-1.21l.82-1.08zm-10.627 1.022c.173.21.298.457.367.72l.05.166-.151.086a14.3 14.3 0 0 1-15.257-.67c-2.392-1.652-4.22-4-5.234-6.724l-.065-.173.173-.1c.064-.038.124-.081.18-.13l.144-.144.158.151c.215.215.492.356.792.403a1.54 1.54 0 0 0 1.253-.345l.151-.137.144.137c.28.237.634.367 1.001.367h.26c.329-.055.63-.223.849-.475l.201-.224.152.26a9.166 9.166 0 0 0 12.6 3.29l.33-.194v.41c0 .627.216 1.235.613 1.72l1.289 1.606zm1.036-9.684l-.352-.266a2.62 2.62 0 0 0-1.65-.54.958.958 0 0 0-.928.95v4.94l-.094.064a8.453 8.453 0 0 1-12.686-3.801v-4.896l.353.259a2.65 2.65 0 0 0 1.591.54h.058a.958.958 0 0 0 .936-.958v-4.932l.093-.064a8.41 8.41 0 0 1 4.817-1.52 8.518 8.518 0 0 1 7.848 5.314v.036l.014 4.874zm5.43-6.544c-.065.037-.125.08-.18.13l-.145.143-.158-.151a1.44 1.44 0 0 0-.792-.403 1.54 1.54 0 0 0-1.253.345l-.151.137-.144-.137a1.555 1.555 0 0 0-1.325-.338 1.44 1.44 0 0 0-.85.475l-.201.223-.173-.266a9.166 9.166 0 0 0-12.514-3.312l-.33.194v-.41c0-.627-.216-1.235-.613-1.72l-1.289-1.606a1.98 1.98 0 0 1-.367-.72l-.05-.166.151-.086a14.3 14.3 0 0 1 15.257.67c2.392 1.652 4.22 4 5.234 6.724l.065.173-.173.1z"/>
    </g>
</svg>
