<svg xmlns="http://www.w3.org/2000/svg" width="60" height="60" viewBox="0 0 60 60">
    <g fill="none" fill-rule="evenodd">
        <circle cx="30" cy="30" r="30" fill="#FFF"/>
        <path fill="#0045CF" d="M37.92 19.063H19.049V37.92L37.92 19.063zm-16.373 2.491h10.145L21.547 31.706V21.554z"/>
        <path fill="#323232" d="M32.253 34.874l2.628-2.627.519.52-2.627 2.626z"/>
        <path fill="#323232" fill-rule="nonzero" d="M47.28 43.817l-1.706-1.7H48V16.71H17.436V12h-2.722A2.714 2.714 0 0 0 12 14.729v24.667c0 1.5 1.214 2.718 2.714 2.722H38.64l5.191 5.162a2.444 2.444 0 0 0 3.456-3.456l-.007-.007zM12.72 14.729a1.98 1.98 0 0 1 1.994-2.009h1.988v23.962h-1.988a2.671 2.671 0 0 0-1.627.518l-.367.288v-22.76zm1.98 26.64a1.987 1.987 0 0 1 0-3.967h2.736V17.443H47.28v23.94h-2.434l-9.36-9.36-4.867-1.382 1.44 4.838 5.861 5.904-23.22-.014zm18-6.293l-.986-3.384 3.405.972 10.08 10.08-2.419 2.412-10.08-10.08zM45.56 47.28a1.685 1.685 0 0 1-1.21-.497l-1.08-1.073 2.419-2.419 1.073 1.073a1.706 1.706 0 0 1-1.203 2.916z"/>
        <path fill="#323232" d="M20.813 39.029h1v1h-1zM23.16 39.029h7.783v1H23.16zM23.16 36.876h7.783v1H23.16zM24.6 34.658h1.303v1H24.6zM33.442 25.918h4.183v1h-4.183zM33.442 27.962h4.183v1h-4.183z"/>
        <path fill="#0045CF" d="M41.974 19.538a3.276 3.276 0 1 0 0 6.552 3.276 3.276 0 0 0 0-6.552zm0 4.572a1.296 1.296 0 1 1 1.296-1.296 1.303 1.303 0 0 1-1.296 1.296zM41.974 27.293a3.269 3.269 0 1 0 .014 6.537 3.269 3.269 0 0 0-.014-6.537zm0 4.565a1.296 1.296 0 1 1 1.296-1.296 1.303 1.303 0 0 1-1.296 1.296z"/>
        <path fill="#323232" d="M26.76 34.658h1.303v1H26.76zM28.92 34.658h1.303v1H28.92z"/>
    </g>
</svg>
