<svg xmlns="http://www.w3.org/2000/svg" width="60" height="60" viewBox="0 0 60 60">
    <g fill="none" fill-rule="evenodd">
        <circle cx="30" cy="30" r="30" fill="#FFF"/>
        <path fill="#323232" fill-rule="nonzero" d="M44.505 22.62h-6.402l1.01.66h5.392a1.828 1.828 0 0 1 1.835 1.834V39.86H14.66V25.114a1.828 1.828 0 0 1 1.822-1.821h5.497l.997-.66h-6.481A2.495 2.495 0 0 0 14 25.114v16.164a2.488 2.488 0 0 0 2.495 2.488h7.2v2.574h-2.151V47h17.912v-.66h-2.151v-2.574h7.2A2.488 2.488 0 0 0 47 41.278V25.114a2.495 2.495 0 0 0-2.495-2.494zm-7.874 23.72H24.37v-2.574H36.63v2.574zm9.709-5.062a1.822 1.822 0 0 1-1.822 1.815H16.495a1.822 1.822 0 0 1-1.835-1.815v-.746h31.68v.746z"/>
        <path fill="#0045CF" d="M36.539 22.375a6.303 6.303 0 0 0 0-.706l1.98-1.32-1.155-2.818-2.356.475a7.108 7.108 0 0 0-.502-.495l.456-2.363L32.163 14l-1.32 1.98a6.303 6.303 0 0 0-.706 0L28.817 14l-2.831 1.181.475 2.357a7.108 7.108 0 0 0-.495.501l-2.363-.455-1.148 2.798 1.98 1.32a6.303 6.303 0 0 0 0 .706l-1.98 1.32 1.181 2.812 2.356-.475c.157.175.325.34.502.495l-.456 2.363 2.799 1.148 1.32-1.98c.235.013.47.013.706 0l1.32 1.98 2.792-1.168-.436-2.363a5.94 5.94 0 0 0 .495-.502l2.363.456 1.148-2.799-2.006-1.32zm-2.482 1.129a3.835 3.835 0 0 1-5.009 2.086 3.848 3.848 0 1 1 2.91-7.102 3.848 3.848 0 0 1 2.1 5.016z"/>
        <path fill="#323232" fill-rule="nonzero" d="M33.437 20.818a3.181 3.181 0 0 0-5.88 0A3.194 3.194 0 0 0 30.5 25.22a3.188 3.188 0 0 0 2.944-4.415l-.007.013zm-.6 2.184A2.521 2.521 0 0 1 30.5 24.56a2.495 2.495 0 0 1-.95-.191 2.528 2.528 0 0 1 .95-4.851c.326 0 .65.066.95.191a2.521 2.521 0 0 1 1.38 3.3l.006-.007z"/>
        <path fill="#0045CF" d="M30.5 33.8a2.495 2.495 0 1 0 0 4.99 2.495 2.495 0 0 0 0-4.99zm0 3.577a1.089 1.089 0 1 1 1.089-1.082A1.089 1.089 0 0 1 30.5 37.39v-.013zM19.722 31.78a2.495 2.495 0 1 0 2.495 2.489 2.488 2.488 0 0 0-2.495-2.489zm0 3.578a1.089 1.089 0 1 1 0-2.178 1.089 1.089 0 0 1 0 2.178zM41.278 31.78a2.495 2.495 0 1 0 2.488 2.489 2.488 2.488 0 0 0-2.488-2.489zm0 3.578a1.089 1.089 0 1 1 .026-2.178 1.089 1.089 0 0 1-.026 2.178z"/>
        <path fill="#323232" fill-rule="nonzero" d="M26.54 29.84v4.752h-3.696a2.772 2.772 0 0 0 0-.337 2.904 2.904 0 0 0 0-.336h3.036v-4.343l.66.264zM30.837 29.18v3.96a2.904 2.904 0 0 0-.337 0 2.904 2.904 0 0 0-.337.033v-3.894l.357-.535.317.436zM38.123 34.269c.004.112.015.225.033.336H34.46V29.84l.66-.284v4.376h3.036a2.904 2.904 0 0 0-.033.337z"/>
    </g>
</svg>
