<?xml version="1.0" encoding="UTF-8"?>
<svg xmlns="http://www.w3.org/2000/svg" width="720" height="400" viewBox="0 0 720 400" fill="none">
  <g clip-path="url(#clip0_4654_25752)">
    <rect x="-0.5" width="246" height="400" fill="#85DA95"></rect>
    <rect x="268.5" y="-43" width="246" height="257" fill="#9C99F5"></rect>
    <circle cx="408.062" cy="209.195" r="18.5624" fill="#9C99F5"></circle>
    <circle cx="408.062" cy="227.07" r="8.93746" fill="#9C99F5"></circle>
    <circle cx="421.812" cy="254.57" r="8.93746" fill="#9C99F5"></circle>
    <circle cx="471.794" cy="334.938" r="14.9187" fill="#9C99F5"></circle>
    <circle cx="490.974" cy="388.22" r="8.52496" fill="#9C99F5"></circle>
    <path d="M499.498 291.319C499.498 291.501 499.496 323.509 499.491 323.689C499.221 333.482 491.694 341.332 482.448 341.332C473.202 341.332 465.675 333.482 465.406 323.689C465.401 323.509 465.398 291.501 465.398 291.319C465.398 281.275 473.032 273.133 482.448 273.133C491.865 273.133 499.498 281.275 499.498 291.319Z" fill="#9C99F5"></path>
    <path d="M596.5 206H576.5V319.946C576.5 322.347 577.413 324.65 579.037 326.348C580.661 328.046 582.865 329 585.162 329H587.838C590.132 329 592.332 328.049 593.956 326.356C595.58 324.662 596.495 322.365 596.5 319.967V206Z" fill="#262647"></path>
    <path d="M544.54 168H628.5V104C627.001 104.024 625.53 104.44 624.22 105.211C620.703 107.336 618.492 111.118 615.96 114.433C613.428 117.748 609.932 120.807 605.912 120.807C601.512 120.637 598.216 116.707 595.081 113.434C591.946 110.162 587.465 107.06 583.446 108.908C581.568 109.981 580.009 111.584 578.944 113.54C576.995 116.573 575.249 119.747 573.719 123.039C572.152 126.438 570.504 130.284 567.188 131.729C563.47 133.323 559.15 131.113 556.497 127.947C553.844 124.781 552.257 120.744 550.006 117.323C548.614 115.043 546.726 113.149 544.5 111.798" fill="#E1DFFC"></path>
    <path d="M544.5 96.5425V112.424C546.726 113.783 548.614 115.688 550.006 117.982C552.257 121.509 553.824 125.548 556.497 128.669C559.17 131.79 563.47 134.077 567.188 132.474C570.504 131.02 572.152 127.151 573.719 123.731C575.249 120.421 576.995 117.228 578.944 114.177C580.009 112.209 581.568 110.596 583.446 109.517C587.465 107.636 591.966 110.757 595.081 114.07C598.196 117.383 601.512 121.316 605.912 121.487C609.932 121.637 613.388 118.473 615.96 115.075C618.533 111.676 620.703 107.935 624.22 105.798C625.53 105.022 627.001 104.604 628.5 104.58V96.5425C628.495 93.4867 627.352 90.5573 625.323 88.3945C623.293 86.2317 620.542 85.0113 617.669 85H555.372C552.494 85.0056 549.734 86.2228 547.697 88.3856C545.66 90.5484 544.511 93.4811 544.5 96.5425Z" fill="#9C99F5"></path>
    <path d="M554.5 204H618.5C618.5 204 596.5 214.667 596.5 224H576.5C576.5 214.667 554.5 204 554.5 204Z" fill="#262647"></path>
    <path d="M544.5 168L544.5 194C544.5 199.523 548.977 204 554.5 204L618.5 204C624.023 204 628.5 199.523 628.5 194L628.5 168L544.5 168Z" fill="#A2B3AC"></path>
    <path d="M546.5 184L626.5 184" stroke="#262647" stroke-linecap="round"></path>
    <path d="M546.5 192L626.5 192" stroke="#262647" stroke-linecap="round"></path>
    <circle cx="586.5" cy="315.203" r="3" fill="white"></circle>
  </g>
  <defs>
    <clipPath id="clip0_4654_25752">
      <rect width="720" height="400" fill="white"></rect>
    </clipPath>
  </defs>
</svg>
