<?xml version="1.0" encoding="UTF-8"?>
<svg xmlns="http://www.w3.org/2000/svg" width="721" height="421" viewBox="0 0 721 421" fill="none">
  <g clip-path="url(#clip0_5082_32628)">
    <rect width="720" height="420" transform="translate(0.121094 0.67041)" fill="#F5F6FE"></rect>
    <rect x="-1.875" y="123.807" width="745.375" height="478.255" fill="white"></rect>
    <rect x="-1.87891" y="322.148" width="799.758" height="1.59952" fill="#E9E9ED"></rect>
    <rect x="-1.87891" y="222.978" width="799.758" height="1.59952" fill="#E9E9ED"></rect>
    <rect x="-1.87891" y="371.734" width="799.758" height="1.59952" fill="#E9E9ED"></rect>
    <rect x="-1.87891" y="272.563" width="799.758" height="1.59952" fill="#E9E9ED"></rect>
    <rect x="-1.87891" y="173.392" width="799.758" height="1.59952" fill="#E9E9ED"></rect>
    <rect x="584.844" y="923.569" width="799.758" height="1.59952" transform="rotate(-90 584.844 923.569)" fill="#E9E9ED"></rect>
    <rect x="378.809" y="923.569" width="799.758" height="1.59952" transform="rotate(-90 378.809 923.569)" fill="#E9E9ED"></rect>
    <rect x="284.434" y="923.569" width="799.758" height="1.59952" transform="rotate(-90 284.434 923.569)" fill="#E9E9ED"></rect>
    <rect x="185.266" y="923.569" width="799.758" height="1.59952" transform="rotate(-90 185.266 923.569)" fill="#E9E9ED"></rect>
    <path d="M651.39 394.126C650.542 394.126 649.728 394.463 649.128 395.063C648.528 395.663 648.191 396.476 648.191 397.325C648.191 399.084 649.631 400.524 651.39 400.524C652.239 400.524 653.053 400.187 653.652 399.587C654.252 398.987 654.589 398.173 654.589 397.325C654.589 396.476 654.252 395.663 653.652 395.063C653.053 394.463 652.239 394.126 651.39 394.126ZM670.585 394.126C669.736 394.126 668.923 394.463 668.323 395.063C667.723 395.663 667.386 396.476 667.386 397.325C667.386 399.084 668.825 400.524 670.585 400.524C671.433 400.524 672.247 400.187 672.847 399.587C673.447 398.987 673.784 398.173 673.784 397.325C673.784 396.476 673.447 395.663 672.847 395.063C672.247 394.463 671.433 394.126 670.585 394.126ZM660.988 394.126C660.139 394.126 659.325 394.463 658.725 395.063C658.126 395.663 657.789 396.476 657.789 397.325C657.789 399.084 659.228 400.524 660.988 400.524C661.836 400.524 662.65 400.187 663.25 399.587C663.85 398.987 664.187 398.173 664.187 397.325C664.187 396.476 663.85 395.663 663.25 395.063C662.65 394.463 661.836 394.126 660.988 394.126Z" fill="#D4D4DA"></path>
    <path fill-rule="evenodd" clip-rule="evenodd" d="M58.75 397.254C58.75 394.154 61.2634 391.641 64.3638 391.641H147.448C150.548 391.641 153.061 394.154 153.061 397.254C153.061 400.355 150.548 402.868 147.448 402.868H64.3638C61.2634 402.868 58.75 400.355 58.75 397.254Z" fill="#D4D4DA"></path>
    <mask id="path-13-inside-1_5082_32628" fill="white">
      <rect x="15.7148" y="386.128" width="22.3932" height="22.3932" rx="1.59952"></rect>
    </mask>
    <rect x="15.7148" y="386.128" width="22.3932" height="22.3932" rx="1.59952" fill="white" stroke="#D4D4DA" stroke-width="4" mask="url(#path-13-inside-1_5082_32628)"></rect>
    <path fill-rule="evenodd" clip-rule="evenodd" d="M231.649 392.28C231.947 392.28 232.189 392.522 232.189 392.82V400.205C232.189 400.503 231.947 400.745 231.649 400.745C231.351 400.745 231.109 400.503 231.109 400.205V392.82C231.109 392.522 231.351 392.28 231.649 392.28ZM231.109 403.833C231.109 403.534 231.351 403.293 231.649 403.293H231.65C231.949 403.293 232.19 403.534 232.19 403.833C232.19 404.131 231.949 404.372 231.65 404.372H231.649C231.351 404.372 231.109 404.131 231.109 403.833Z" fill="white"></path>
    <path d="M242.445 404.012L232.971 387.903C232.419 386.965 231.077 386.959 230.517 387.893L220.858 404.001C220.28 404.965 220.967 406.196 222.082 406.196H241.215C242.325 406.196 243.012 404.975 242.445 404.012ZM231.648 399.696C231.092 399.696 230.648 399.258 230.648 398.696V394.196C230.648 393.634 231.092 393.196 231.648 393.196C232.205 393.196 232.648 393.634 232.648 394.196L232.644 398.696C232.644 399.258 232.205 399.696 231.648 399.696ZM232.644 402.196C232.644 402.758 232.193 403.196 231.636 403.196C231.079 403.196 230.628 402.758 230.628 402.196C230.628 401.634 231.079 401.196 231.636 401.196C232.193 401.196 232.644 401.634 232.644 402.196Z" fill="#FFDE00"></path>
    <path d="M303.094 389.329V397.645C303.094 399.093 302.401 399.872 301.185 399.872C300.077 399.872 299.277 399.224 299.277 398.236H297.891C297.891 400.025 299.277 401.121 301.185 401.121C303.207 401.121 304.502 399.877 304.502 397.645V389.329H303.094Z" fill="#6D7888"></path>
    <path d="M310.801 401.144C312.574 401.144 313.869 400.258 314.278 398.94L312.983 398.577C312.642 399.485 311.852 399.94 310.801 399.94C309.228 399.94 308.143 398.923 308.081 397.054H314.414V396.486C314.414 393.237 312.483 392.124 310.665 392.124C308.302 392.124 306.735 393.987 306.735 396.668C306.735 399.349 308.28 401.144 310.801 401.144ZM308.081 395.896C308.172 394.538 309.132 393.328 310.665 393.328C312.119 393.328 313.051 394.419 313.051 395.896H308.081Z" fill="#6D7888"></path>
    <path d="M317.794 395.714C317.794 394.192 318.737 393.328 320.02 393.328C321.264 393.328 322.02 394.14 322.02 395.509V400.962H323.36V395.418C323.36 393.192 322.173 392.124 320.407 392.124C319.089 392.124 318.271 392.715 317.862 393.601H317.748V392.238H316.453V400.962H317.794V395.714Z" fill="#6D7888"></path>
    <path d="M327.15 395.714C327.15 394.192 328.093 393.328 329.377 393.328C330.621 393.328 331.376 394.14 331.376 395.509V400.962H332.717V395.418C332.717 393.192 331.53 392.124 329.763 392.124C328.445 392.124 327.627 392.715 327.218 393.601H327.105V392.238H325.81V400.962H327.15V395.714Z" fill="#6D7888"></path>
    <path d="M335.717 404.234C336.927 404.234 337.779 403.592 338.285 402.235L341.999 392.26L340.534 392.238L338.126 399.19H338.035L335.626 392.238H334.172L337.399 401.008L337.149 401.689C336.66 403.018 336.058 403.143 335.081 402.893L334.74 404.075C334.877 404.143 335.263 404.234 335.717 404.234Z" fill="#6D7888"></path>
    <path d="M651.39 346.141C650.542 346.141 649.728 346.478 649.128 347.078C648.528 347.678 648.191 348.491 648.191 349.34C648.191 351.099 649.631 352.539 651.39 352.539C652.239 352.539 653.053 352.202 653.652 351.602C654.252 351.002 654.589 350.188 654.589 349.34C654.589 348.491 654.252 347.678 653.652 347.078C653.053 346.478 652.239 346.141 651.39 346.141ZM670.585 346.141C669.736 346.141 668.923 346.478 668.323 347.078C667.723 347.678 667.386 348.491 667.386 349.34C667.386 351.099 668.825 352.539 670.585 352.539C671.433 352.539 672.247 352.202 672.847 351.602C673.447 351.002 673.784 350.188 673.784 349.34C673.784 348.491 673.447 347.678 672.847 347.078C672.247 346.478 671.433 346.141 670.585 346.141ZM660.988 346.141C660.139 346.141 659.325 346.478 658.725 347.078C658.126 347.678 657.789 348.491 657.789 349.34C657.789 351.099 659.228 352.539 660.988 352.539C661.836 352.539 662.65 352.202 663.25 351.602C663.85 351.002 664.187 350.188 664.187 349.34C664.187 348.491 663.85 347.678 663.25 347.078C662.65 346.478 661.836 346.141 660.988 346.141Z" fill="#D4D4DA"></path>
    <path fill-rule="evenodd" clip-rule="evenodd" d="M59.2109 348.945C59.2109 345.844 61.7243 343.331 64.8247 343.331H169.13C172.23 343.331 174.744 345.844 174.744 348.945C174.744 352.045 172.23 354.559 169.13 354.559H64.8247C61.7243 354.559 59.2109 352.045 59.2109 348.945Z" fill="#D4D4DA"></path>
    <mask id="path-19-inside-2_5082_32628" fill="white">
      <rect x="15.7148" y="338.143" width="22.3932" height="22.3932" rx="1.59952"></rect>
    </mask>
    <rect x="15.7148" y="338.143" width="22.3932" height="22.3932" rx="1.59952" fill="white" stroke="#D4D4DA" stroke-width="4" mask="url(#path-19-inside-2_5082_32628)"></rect>
    <path fill-rule="evenodd" clip-rule="evenodd" d="M231.649 344.295C231.947 344.295 232.189 344.537 232.189 344.835V352.22C232.189 352.518 231.947 352.759 231.649 352.759C231.351 352.759 231.109 352.518 231.109 352.22V344.835C231.109 344.537 231.351 344.295 231.649 344.295ZM231.109 355.847C231.109 355.549 231.351 355.308 231.649 355.308H231.65C231.949 355.308 232.19 355.549 232.19 355.847C232.19 356.146 231.949 356.387 231.65 356.387H231.649C231.351 356.387 231.109 356.146 231.109 355.847Z" fill="white"></path>
    <path d="M242.445 356.015L232.971 339.907C232.419 338.968 231.077 338.963 230.517 339.896L220.858 356.004C220.28 356.968 220.967 358.199 222.082 358.199H241.215C242.325 358.199 243.012 356.979 242.445 356.015ZM231.648 351.699C231.092 351.699 230.648 351.262 230.648 350.699V346.199C230.648 345.637 231.092 345.199 231.648 345.199C232.205 345.199 232.648 345.637 232.648 346.199L232.644 350.699C232.644 351.262 232.205 351.699 231.648 351.699ZM232.644 354.199C232.644 354.762 232.193 355.199 231.636 355.199C231.079 355.199 230.628 354.762 230.628 354.199C230.628 353.637 231.079 353.199 231.636 353.199C232.193 353.199 232.644 353.637 232.644 354.199Z" fill="#FFDE00"></path>
    <rect x="398" y="334.946" width="127.048" height="28.7913" rx="6.73653" fill="#85DA95"></rect>
    <path d="M304.035 341.344V349.66C304.035 351.109 303.342 351.887 302.126 351.887C301.019 351.887 300.218 351.239 300.218 350.251H298.832C298.832 352.04 300.218 353.136 302.126 353.136C304.149 353.136 305.444 351.892 305.444 349.66V341.344H304.035Z" fill="#6D7888"></path>
    <path d="M311.743 353.159C313.515 353.159 314.81 352.273 315.219 350.955L313.924 350.592C313.583 351.501 312.794 351.955 311.743 351.955C310.17 351.955 309.085 350.938 309.022 349.069H315.355V348.501C315.355 345.252 313.424 344.139 311.607 344.139C309.244 344.139 307.676 346.002 307.676 348.683C307.676 351.364 309.221 353.159 311.743 353.159ZM309.022 347.911C309.113 346.553 310.073 345.343 311.607 345.343C313.061 345.343 313.992 346.434 313.992 347.911H309.022Z" fill="#6D7888"></path>
    <path d="M318.735 347.729C318.735 346.207 319.678 345.343 320.962 345.343C322.206 345.343 322.961 346.156 322.961 347.524V352.977H324.302V347.434C324.302 345.207 323.114 344.139 321.348 344.139C320.03 344.139 319.212 344.73 318.803 345.616H318.69V344.253H317.395V352.977H318.735V347.729Z" fill="#6D7888"></path>
    <path d="M328.092 347.729C328.092 346.207 329.035 345.343 330.318 345.343C331.562 345.343 332.318 346.156 332.318 347.524V352.977H333.658V347.434C333.658 345.207 332.471 344.139 330.705 344.139C329.387 344.139 328.569 344.73 328.16 345.616H328.046V344.253H326.751V352.977H328.092V347.729Z" fill="#6D7888"></path>
    <path d="M336.659 356.249C337.869 356.249 338.721 355.607 339.226 354.25L342.941 344.275L341.475 344.253L339.067 351.205H338.976L336.568 344.253H335.114L338.34 353.023L338.09 353.704C337.602 355.034 336.999 355.158 336.022 354.909L335.682 356.09C335.818 356.158 336.204 356.249 336.659 356.249Z" fill="#6D7888"></path>
    <path d="M651.39 296.557C650.542 296.557 649.728 296.894 649.128 297.494C648.528 298.094 648.191 298.908 648.191 299.756C648.191 301.516 649.631 302.955 651.39 302.955C652.239 302.955 653.053 302.618 653.652 302.018C654.252 301.418 654.589 300.605 654.589 299.756C654.589 298.908 654.252 298.094 653.652 297.494C653.053 296.894 652.239 296.557 651.39 296.557ZM670.585 296.557C669.736 296.557 668.923 296.894 668.323 297.494C667.723 298.094 667.386 298.908 667.386 299.756C667.386 301.516 668.825 302.955 670.585 302.955C671.433 302.955 672.247 302.618 672.847 302.018C673.447 301.418 673.784 300.605 673.784 299.756C673.784 298.908 673.447 298.094 672.847 297.494C672.247 296.894 671.433 296.557 670.585 296.557ZM660.988 296.557C660.139 296.557 659.325 296.894 658.725 297.494C658.126 298.094 657.789 298.908 657.789 299.756C657.789 301.516 659.228 302.955 660.988 302.955C661.836 302.955 662.65 302.618 663.25 302.018C663.85 301.418 664.187 300.605 664.187 299.756C664.187 298.908 663.85 298.094 663.25 297.494C662.65 296.894 661.836 296.557 660.988 296.557Z" fill="#D4D4DA"></path>
    <path fill-rule="evenodd" clip-rule="evenodd" d="M59.2109 297.983C59.2109 294.883 61.7243 292.37 64.8247 292.37H169.13C172.23 292.37 174.744 294.883 174.744 297.983C174.744 301.084 172.23 303.597 169.13 303.597H64.8247C61.7243 303.597 59.2109 301.084 59.2109 297.983Z" fill="#D4D4DA"></path>
    <mask id="path-26-inside-3_5082_32628" fill="white">
      <rect x="15.7148" y="286.958" width="22.3932" height="22.3932" rx="1.59952"></rect>
    </mask>
    <rect x="15.7148" y="286.958" width="22.3932" height="22.3932" rx="1.59952" fill="white" stroke="#D4D4DA" stroke-width="4" mask="url(#path-26-inside-3_5082_32628)"></rect>
    <path d="M229.332 294.431C229.332 294.431 228.933 294.93 228.733 295.229L228.334 295.829C228.035 296.228 228.134 296.428 228.234 296.627C228.633 297.227 229.332 298.225 230.43 299.323C231.328 300.222 232.227 300.921 233.125 301.52C233.325 301.62 233.524 301.72 233.924 301.42L235.421 300.422C236.119 299.923 237.018 299.823 237.717 300.322C237.717 300.322 240.511 301.92 241.609 303.018C243.206 304.616 242.108 306.014 240.711 307.412C236.419 311.805 229.232 305.814 226.138 302.719C223.343 300.022 218.452 292.933 222.345 289.138C223.243 288.14 223.942 287.641 224.641 287.541C225.439 287.341 226.138 287.541 226.737 288.24C227.835 289.338 229.432 292.034 229.432 292.134C229.931 292.933 229.831 293.732 229.332 294.431Z" fill="#F94839"></path>
    <rect x="398" y="285.361" width="127.048" height="28.7913" rx="6.73653" fill="#85DA95"></rect>
    <rect x="398.453" y="383.979" width="50.2707" height="28.7913" rx="6.73653" fill="#F4322C"></rect>
    <path d="M300.309 303.393L301.479 300.098H306.182L307.352 303.393H308.829L304.558 291.76H303.103L298.832 303.393H300.309ZM301.922 298.849L303.785 293.6H303.876L305.739 298.849H301.922Z" fill="#6D7888"></path>
    <path d="M310.459 303.393H311.8V297.94C311.8 296.662 312.731 295.759 313.776 295.759C314.793 295.759 315.503 296.423 315.503 297.417V303.393H316.866V297.713C316.866 296.588 317.571 295.759 318.798 295.759C319.752 295.759 320.57 296.264 320.57 297.554V303.393H321.91V297.554C321.91 295.503 320.808 294.555 319.252 294.555C318.002 294.555 317.088 295.128 316.639 296.031H316.548C316.117 295.1 315.355 294.555 314.208 294.555C313.072 294.555 312.231 295.1 311.868 296.031H311.754V294.668H310.459V303.393Z" fill="#6D7888"></path>
    <path d="M324.912 306.665C326.122 306.665 326.974 306.023 327.48 304.665L331.194 294.691L329.729 294.668L327.321 301.621H327.23L324.821 294.668H323.367L326.594 303.438L326.344 304.12C325.855 305.449 325.253 305.574 324.276 305.324L323.935 306.506C324.072 306.574 324.458 306.665 324.912 306.665Z" fill="#6D7888"></path>
    <path d="M651.39 246.972C650.542 246.972 649.728 247.309 649.128 247.909C648.528 248.509 648.191 249.323 648.191 250.171C648.191 251.931 649.631 253.37 651.39 253.37C652.239 253.37 653.053 253.033 653.652 252.434C654.252 251.834 654.589 251.02 654.589 250.171C654.589 249.323 654.252 248.509 653.652 247.909C653.053 247.309 652.239 246.972 651.39 246.972ZM670.585 246.972C669.736 246.972 668.923 247.309 668.323 247.909C667.723 248.509 667.386 249.323 667.386 250.171C667.386 251.931 668.825 253.37 670.585 253.37C671.433 253.37 672.247 253.033 672.847 252.434C673.447 251.834 673.784 251.02 673.784 250.171C673.784 249.323 673.447 248.509 672.847 247.909C672.247 247.309 671.433 246.972 670.585 246.972ZM660.988 246.972C660.139 246.972 659.325 247.309 658.725 247.909C658.126 248.509 657.789 249.323 657.789 250.171C657.789 251.931 659.228 253.37 660.988 253.37C661.836 253.37 662.65 253.033 663.25 252.434C663.85 251.834 664.187 251.02 664.187 250.171C664.187 249.323 663.85 248.509 663.25 247.909C662.65 247.309 661.836 246.972 660.988 246.972Z" fill="#D4D4DA"></path>
    <path fill-rule="evenodd" clip-rule="evenodd" d="M59.2109 248.087C59.2109 244.987 61.7243 242.473 64.8247 242.473H169.13C172.23 242.473 174.744 244.987 174.744 248.087C174.744 251.188 172.23 253.701 169.13 253.701H64.8247C61.7243 253.701 59.2109 251.188 59.2109 248.087Z" fill="#D4D4DA"></path>
    <mask id="path-33-inside-4_5082_32628" fill="white">
      <rect x="15.7148" y="237.373" width="22.3932" height="22.3932" rx="1.59952"></rect>
    </mask>
    <rect x="15.7148" y="237.373" width="22.3932" height="22.3932" rx="1.59952" fill="white" stroke="#D4D4DA" stroke-width="4" mask="url(#path-33-inside-4_5082_32628)"></rect>
    <path d="M221.291 245.25C220.563 245.53 220.357 246.465 220.903 247.011L226.934 250.152C227.321 250.353 227.794 250.281 228.103 249.972L232.524 245.55C232.817 245.258 233.292 245.258 233.585 245.55C233.878 245.843 233.878 246.318 233.585 246.611L229.163 251.033C228.855 251.341 228.782 251.814 228.983 252.202L232.124 258.232C232.67 258.778 233.605 258.572 233.885 257.844L240.893 239.615C241.226 238.75 240.385 237.91 239.52 238.242L221.291 245.25Z" fill="#192435"></path>
    <rect x="398" y="234.176" width="55.9831" height="28.7913" rx="6.73653" fill="#FFDE00"></rect>
    <path d="M304.035 242.175V250.491C304.035 251.939 303.342 252.718 302.126 252.718C301.019 252.718 300.218 252.07 300.218 251.082H298.832C298.832 252.871 300.218 253.967 302.126 253.967C304.149 253.967 305.444 252.723 305.444 250.491V242.175H304.035Z" fill="#6D7888"></path>
    <path d="M311.743 253.99C313.515 253.99 314.81 253.104 315.219 251.786L313.924 251.422C313.583 252.331 312.794 252.786 311.743 252.786C310.17 252.786 309.085 251.769 309.022 249.9H315.355V249.332C315.355 246.083 313.424 244.97 311.607 244.97C309.244 244.97 307.676 246.833 307.676 249.514C307.676 252.195 309.221 253.99 311.743 253.99ZM309.022 248.741C309.113 247.384 310.073 246.174 311.607 246.174C313.061 246.174 313.992 247.265 313.992 248.741H309.022Z" fill="#6D7888"></path>
    <path d="M318.735 248.56C318.735 247.037 319.678 246.174 320.962 246.174C322.206 246.174 322.961 246.986 322.961 248.355V253.808H324.302V248.264C324.302 246.038 323.114 244.97 321.348 244.97C320.03 244.97 319.212 245.561 318.803 246.447H318.69V245.084H317.395V253.808H318.735V248.56Z" fill="#6D7888"></path>
    <path d="M328.092 248.56C328.092 247.037 329.035 246.174 330.318 246.174C331.562 246.174 332.318 246.986 332.318 248.355V253.808H333.658V248.264C333.658 246.038 332.471 244.97 330.705 244.97C329.387 244.97 328.569 245.561 328.16 246.447H328.046V245.084H326.751V253.808H328.092V248.56Z" fill="#6D7888"></path>
    <path d="M336.659 257.08C337.869 257.08 338.721 256.438 339.226 255.08L342.941 245.106L341.475 245.084L339.067 252.036H338.976L336.568 245.084H335.114L338.34 253.854L338.09 254.535C337.602 255.864 336.999 255.989 336.022 255.739L335.682 256.921C335.818 256.989 336.204 257.08 336.659 257.08Z" fill="#6D7888"></path>
    <path d="M651.39 197.387C650.542 197.387 649.728 197.724 649.128 198.324C648.528 198.924 648.191 199.738 648.191 200.586C648.191 202.346 649.631 203.786 651.39 203.786C652.239 203.786 653.053 203.448 653.652 202.849C654.252 202.249 654.589 201.435 654.589 200.586C654.589 199.738 654.252 198.924 653.652 198.324C653.053 197.724 652.239 197.387 651.39 197.387ZM670.585 197.387C669.736 197.387 668.923 197.724 668.323 198.324C667.723 198.924 667.386 199.738 667.386 200.586C667.386 202.346 668.825 203.786 670.585 203.786C671.433 203.786 672.247 203.448 672.847 202.849C673.447 202.249 673.784 201.435 673.784 200.586C673.784 199.738 673.447 198.924 672.847 198.324C672.247 197.724 671.433 197.387 670.585 197.387ZM660.988 197.387C660.139 197.387 659.325 197.724 658.725 198.324C658.126 198.924 657.789 199.738 657.789 200.586C657.789 202.346 659.228 203.786 660.988 203.786C661.836 203.786 662.65 203.448 663.25 202.849C663.85 202.249 664.187 201.435 664.187 200.586C664.187 199.738 663.85 198.924 663.25 198.324C662.65 197.724 661.836 197.387 660.988 197.387Z" fill="#D4D4DA"></path>
    <path fill-rule="evenodd" clip-rule="evenodd" d="M59.2109 199.248C59.2109 196.147 61.7243 193.634 64.8247 193.634H169.13C172.23 193.634 174.744 196.147 174.744 199.248C174.744 202.348 172.23 204.862 169.13 204.862H64.8247C61.7243 204.862 59.2109 202.348 59.2109 199.248Z" fill="#D4D4DA"></path>
    <mask id="path-39-inside-5_5082_32628" fill="white">
      <rect x="15.7148" y="187.788" width="22.3932" height="22.3932" rx="1.59952"></rect>
    </mask>
    <rect x="15.7148" y="187.788" width="22.3932" height="22.3932" rx="1.59952" fill="white" stroke="#D4D4DA" stroke-width="4" mask="url(#path-39-inside-5_5082_32628)"></rect>
    <path d="M221.291 196.247C220.563 196.527 220.357 197.462 220.903 198.008L226.934 201.149C227.321 201.35 227.794 201.278 228.103 200.969L232.524 196.548C232.817 196.255 233.292 196.255 233.585 196.548C233.878 196.84 233.878 197.315 233.585 197.608L229.163 202.03C228.855 202.338 228.782 202.812 228.983 203.199L232.124 209.229C232.67 209.775 233.605 209.569 233.885 208.841L240.893 190.612C241.226 189.747 240.385 188.907 239.52 189.239L221.291 196.247Z" fill="#2AAA51"></path>
    <path d="M298.832 207.42H303.035C305.784 207.42 306.92 206.08 306.92 204.33C306.92 202.49 305.648 201.49 304.58 201.422V201.308C305.58 201.036 306.466 200.377 306.466 198.877C306.466 197.173 305.33 195.787 302.899 195.787H298.832V207.42ZM300.241 206.171V202.126H303.103C304.626 202.126 305.58 203.149 305.58 204.33C305.58 205.353 304.876 206.171 303.035 206.171H300.241ZM300.241 200.899V197.037H302.899C304.444 197.037 305.126 197.855 305.126 198.877C305.126 200.104 304.126 200.899 302.854 200.899H300.241Z" fill="#6D7888"></path>
    <path d="M309.053 207.42H310.394V201.899C310.394 200.718 311.325 199.854 312.598 199.854C312.956 199.854 313.325 199.922 313.416 199.945V198.582C313.262 198.571 312.91 198.559 312.711 198.559C311.666 198.559 310.757 199.15 310.439 200.013H310.348V198.696H309.053V207.42Z" fill="#6D7888"></path>
    <path d="M318.397 207.602C320.169 207.602 321.464 206.716 321.873 205.398L320.578 205.035C320.237 205.943 319.448 206.398 318.397 206.398C316.824 206.398 315.739 205.381 315.676 203.512H322.01V202.944C322.01 199.695 320.078 198.582 318.261 198.582C315.898 198.582 314.33 200.445 314.33 203.126C314.33 205.807 315.875 207.602 318.397 207.602ZM315.676 202.354C315.767 200.996 316.727 199.786 318.261 199.786C319.715 199.786 320.646 200.877 320.646 202.354H315.676Z" fill="#6D7888"></path>
    <path d="M326.616 207.625C328.139 207.625 328.934 206.807 329.206 206.239H329.275V207.42H330.615V201.672C330.615 198.9 328.502 198.582 327.389 198.582C326.071 198.582 324.571 199.036 323.89 200.627L325.162 201.081C325.458 200.445 326.156 199.763 327.434 199.763C328.667 199.763 329.275 200.417 329.275 201.536V201.581C329.275 202.229 328.616 202.172 327.025 202.376C325.406 202.586 323.64 202.944 323.64 204.944C323.64 206.648 324.958 207.625 326.616 207.625ZM326.821 206.421C325.753 206.421 324.98 205.943 324.98 205.012C324.98 203.989 325.912 203.671 326.957 203.535C327.525 203.467 329.047 203.308 329.275 203.035V204.262C329.275 205.353 328.411 206.421 326.821 206.421Z" fill="#6D7888"></path>
    <path d="M334.402 202.172C334.402 200.65 335.345 199.786 336.629 199.786C337.873 199.786 338.628 200.598 338.628 201.967V207.42H339.969V201.876C339.969 199.65 338.782 198.582 337.015 198.582C335.697 198.582 334.879 199.173 334.47 200.059H334.357V198.696H333.062V207.42H334.402V202.172Z" fill="#6D7888"></path>
    <path d="M345.713 207.602C347.394 207.602 347.962 206.557 348.257 206.08H348.416V207.42H349.712V195.787H348.371V200.082H348.257C347.962 199.627 347.44 198.582 345.735 198.582C343.532 198.582 342.009 200.331 342.009 203.081C342.009 205.852 343.532 207.602 345.713 207.602ZM345.895 206.398C344.213 206.398 343.35 204.921 343.35 203.058C343.35 201.218 344.19 199.786 345.895 199.786C347.53 199.786 348.394 201.104 348.394 203.058C348.394 205.035 347.508 206.398 345.895 206.398Z" fill="#6D7888"></path>
    <path d="M354.92 207.625C356.442 207.625 357.238 206.807 357.51 206.239H357.578V207.42H358.919V201.672C358.919 198.9 356.806 198.582 355.693 198.582C354.375 198.582 352.875 199.036 352.194 200.627L353.466 201.081C353.761 200.445 354.46 199.763 355.738 199.763C356.971 199.763 357.578 200.417 357.578 201.536V201.581C357.578 202.229 356.92 202.172 355.329 202.376C353.71 202.586 351.944 202.944 351.944 204.944C351.944 206.648 353.262 207.625 354.92 207.625ZM355.125 206.421C354.057 206.421 353.284 205.943 353.284 205.012C353.284 203.989 354.216 203.671 355.261 203.535C355.829 203.467 357.351 203.308 357.578 203.035V204.262C357.578 205.353 356.715 206.421 355.125 206.421Z" fill="#6D7888"></path>
    <path d="M362.706 202.172C362.706 200.65 363.649 199.786 364.933 199.786C366.177 199.786 366.932 200.598 366.932 201.967V207.42H368.273V201.876C368.273 199.65 367.086 198.582 365.319 198.582C364.001 198.582 363.183 199.173 362.774 200.059H362.661V198.696H361.366V207.42H362.706V202.172Z" fill="#6D7888"></path>
    <g clip-path="url(#clip1_5082_32628)">
      <rect x="418.59" y="31.7759" width="127.139" height="63.5696" rx="8.66859" fill="white"></rect>
      <path d="M508.126 60.3364C507.483 60.3364 507.16 61.1145 507.615 61.5696L513.095 67.0494C513.377 67.3316 513.835 67.3316 514.117 67.0494L519.597 61.5696C520.052 61.1145 519.729 60.3364 519.086 60.3364H508.126Z" fill="#262647"></path>
      <path d="M436.43 65.4595L452.267 49.6219C452.807 49.0817 453.54 48.7782 454.304 48.7782L463.042 48.7781C463.837 48.7781 464.482 49.4229 464.482 50.2184L464.482 58.9558C464.482 59.7198 464.178 60.4525 463.638 60.9927L447.8 76.8303C446.675 77.9553 444.852 77.9553 443.727 76.8303L436.43 69.5333C435.305 68.4084 435.305 66.5845 436.43 65.4595ZM453.8 51.1543L437.962 66.992C437.683 67.2706 437.683 67.7223 437.962 68.0009L445.259 75.2979C445.538 75.5765 445.989 75.5765 446.268 75.2979L462.106 59.4603C462.239 59.3265 462.315 59.145 462.315 58.9558L462.315 50.9453L454.304 50.9454C454.115 50.9454 453.934 51.0205 453.8 51.1543ZM456.536 58.8917C455.339 58.8917 454.368 57.9214 454.368 56.7245C454.368 55.5276 455.339 54.5573 456.536 54.5573C457.732 54.5573 458.703 55.5276 458.703 56.7245C458.703 57.9214 457.732 58.8917 456.536 58.8917Z" fill="#262647"></path>
    </g>
    <rect x="419.59" y="32.7759" width="125.139" height="61.5696" rx="7.66859" stroke="#B5B4F7" stroke-width="2"></rect>
    <g clip-path="url(#clip2_5082_32628)">
      <rect x="560.172" y="31.7759" width="127.139" height="63.5696" rx="8.66859" fill="white"></rect>
      <path d="M649.712 60.3364C649.069 60.3364 648.746 61.1145 649.201 61.5696L654.681 67.0494C654.963 67.3316 655.421 67.3316 655.703 67.0494L661.183 61.5696C661.638 61.1145 661.315 60.3364 660.672 60.3364H649.712Z" fill="#262647"></path>
      <path d="M579.697 54.9187L603.535 54.9187C604.134 54.9187 604.619 55.4038 604.619 56.0023C604.619 56.6007 604.134 57.0858 603.535 57.0858L579.697 57.0859C579.098 57.0859 578.613 56.6007 578.613 56.0023C578.613 55.4038 579.098 54.9187 579.697 54.9187ZM584.031 62.1425L599.201 62.1425C599.8 62.1425 600.285 62.6277 600.285 63.2261C600.285 63.8245 599.8 64.3097 599.201 64.3097L584.031 64.3097C583.433 64.3097 582.948 63.8245 582.948 63.2261C582.948 62.6277 583.433 62.1425 584.031 62.1425ZM594.145 69.3664L589.088 69.3664C588.489 69.3664 588.004 69.8515 588.004 70.4499C588.004 71.0484 588.489 71.5335 589.088 71.5335L594.145 71.5335C594.743 71.5335 595.228 71.0484 595.228 70.4499C595.228 69.8515 594.743 69.3664 594.145 69.3664Z" fill="#262647"></path>
    </g>
    <rect x="561.172" y="32.7759" width="125.139" height="61.5696" rx="7.66859" stroke="#B5B4F7" stroke-width="2"></rect>
    <rect x="100.824" y="31.5063" width="64.1074" height="64.1074" rx="2.00336" fill="white"></rect>
    <rect x="37.7188" y="32.5063" width="62.1074" height="62.1074" rx="1.00336" fill="#E8E8FF" stroke="#A4A0F7" stroke-width="2"></rect>
    <path d="M119.177 50.1035C118.041 50.1035 117.121 51.0238 117.121 52.1589V54.8995C117.121 56.0347 118.041 56.9549 119.177 56.9549H142.471C143.606 56.9549 144.527 56.0347 144.527 54.8995V52.1589C144.527 51.0238 143.606 50.1035 142.471 50.1035H119.177ZM119.177 59.0103H142.471V72.028C142.471 73.5416 141.244 74.7686 139.731 74.7686H121.917C120.404 74.7686 119.177 73.5416 119.177 72.028V59.0103ZM126.713 64.834C126.713 65.4016 127.173 65.8617 127.741 65.8617H133.907C134.475 65.8617 134.935 65.4016 134.935 64.834C134.935 64.2664 134.475 63.8063 133.907 63.8063H127.741C127.173 63.8063 126.713 64.2664 126.713 64.834Z" fill="#262647"></path>
    <path d="M80.1146 53.5935C80.1146 52.4911 79.2209 51.5974 78.1185 51.5974H59.4883C58.3859 51.5974 57.4922 52.4911 57.4922 53.5935V64.238H62.4727C63.4755 64.238 64.3932 64.8017 64.8466 65.6961L65.0225 66.0431C65.7026 67.3848 67.0791 68.2302 68.5833 68.2302H69.002C70.5062 68.2302 71.8827 67.3848 72.5628 66.0431L72.7387 65.6961C73.1922 64.8017 74.1098 64.238 75.1126 64.238H80.1146V53.5935ZM55.4961 53.5935C55.4961 51.3887 57.2835 49.6013 59.4883 49.6013H78.1185C80.3233 49.6013 82.1107 51.3887 82.1107 53.5935V72.2237C82.1107 74.4285 80.3233 76.2159 78.1185 76.2159H59.4883C57.2835 76.2159 55.4961 74.4285 55.4961 72.2237V53.5935Z" fill="#262647"></path>
  </g>
  <defs>
    <clipPath id="clip0_5082_32628">
      <rect width="720" height="420" fill="white" transform="translate(0.121094 0.67041)"></rect>
    </clipPath>
    <clipPath id="clip1_5082_32628">
      <rect x="418.59" y="31.7759" width="127.139" height="63.5696" rx="8.66859" fill="white"></rect>
    </clipPath>
    <clipPath id="clip2_5082_32628">
      <rect x="560.172" y="31.7759" width="127.139" height="63.5696" rx="8.66859" fill="white"></rect>
    </clipPath>
  </defs>
</svg>
